<svg width="60" height="55" viewBox="0 0 60 55" fill="none" xmlns="http://www.w3.org/2000/svg">
<path d="M44.6261 18.6234L36.4937 4.76306L39.2351 0L48.6847 16.0811C48.8072 16.2802 49.0216 16.3874 49.2513 16.3874H59.3288V21.1964H49.2513C47.3675 21.2117 45.6828 20.2622 44.6261 18.6234Z" fill="white"/>
<path d="M39.4342 21.4416L33.1396 10.5983L36.0342 5.55957L43.9523 19.0524C45.1622 20.9208 47.0919 22.0082 49.236 22.0082H59.3135V26.8172H48.9757C45.0243 26.8326 41.4559 24.8109 39.4342 21.4416Z" fill="white"/>
<path d="M32.6955 11.364L38.7757 21.8244C40.9351 25.4388 44.7486 27.5983 48.9757 27.5983H59.3135V32.3919H49.0676C40.2919 32.3919 35.927 26.1739 34.7937 24.2748L30 16.0352L32.6955 11.364Z" fill="white"/>
<path d="M15.3739 18.6234L23.5063 4.76306L20.7649 0L11.3154 16.0811C11.1928 16.2802 10.9784 16.3874 10.7487 16.3874H0.686523V21.1964H10.764C12.6325 21.2117 14.3172 20.2622 15.3739 18.6234Z" fill="white"/>
<path d="M20.5658 21.4416L26.8604 10.5983L23.9658 5.55957L16.0478 19.0524C14.8379 20.9208 12.9081 22.0082 10.764 22.0082H0.686523V26.8172H11.0244C14.9757 26.8326 18.5442 24.8109 20.5658 21.4416Z" fill="white"/>
<path d="M27.3045 11.364L21.2244 21.8244C19.0649 25.4388 15.2514 27.5983 11.0244 27.5983H0.686523V32.3919H10.9325C19.7081 32.3919 24.073 26.1739 25.2063 24.2748L30 16.0352L27.3045 11.364Z" fill="white"/>
<path fill-rule="evenodd" clip-rule="evenodd" d="M53.2028 41.5197C53.8767 41.9638 54.5659 42.1936 55.0713 42.2395C55.3623 42.2702 55.7605 42.2089 55.8524 41.8566C55.9136 41.4891 55.6533 41.2593 55.2091 41.1828C52.8812 40.8152 52.2379 39.299 52.2379 38.1503C52.2379 37.1702 53.1109 35.2864 56.1127 35.2864C56.6488 35.2864 57.1082 35.3476 57.6442 35.4702C58.119 35.5927 58.6397 35.8224 59.1758 36.1287L57.9659 38.1963C57.6136 37.9819 56.9551 37.7521 56.5569 37.7062C56.2352 37.6602 55.8524 37.6909 55.6992 38.0278C55.6226 38.1963 55.6839 38.5945 56.3578 38.7323C58.8695 39.1918 59.2983 40.8305 59.2983 41.7188C59.2983 42.99 58.1956 44.6134 55.5614 44.6134C53.4479 44.6134 52.5902 43.9855 51.9929 43.5566L53.2028 41.5197ZM42.574 44.5521V35.4702H45.683L48.4704 40.2179V35.4702H51.5947V44.5521H48.4244L45.683 39.8044V44.5521H42.574ZM38.7145 35.4702H41.8235V44.5521H38.7145V35.4702ZM33.0479 38.4413H31.1947V35.4702H38.01V38.4413H36.1569V44.5521H33.0479V38.4413ZM25.9262 44.5521V40.999L27.5037 44.5521H30.7965L29.1731 40.8611C29.3875 40.7693 30.4749 39.9116 30.4749 38.4107C30.4749 36.3584 28.7596 35.4855 27.5956 35.4855H22.8019V44.5675H22.6028H25.9262V44.5521ZM25.9262 37.7828H26.5082C26.7992 37.7828 27.3965 37.9819 27.3965 38.6711C27.3965 39.3143 26.8758 39.5593 26.5082 39.5593H25.9262V37.7828ZM12.9848 44.5521L15.7875 35.4702H19.8001L22.6028 44.5521H19.601L19.2488 43.4188H16.3235L15.9713 44.5521H12.9848ZM18.5749 41.2287L17.7938 38.6864L17.0127 41.2287H18.5749ZM12.847 44.5521L11.3154 35.4702H8.16046L6.78208 40.7539L5.38839 35.4702H2.23344L0.701904 44.5521H3.87217L4.62263 40.0341L5.81722 44.5521H7.74695L8.94154 40.0341L9.692 44.5521H12.847Z" fill="white"/>
<path fill-rule="evenodd" clip-rule="evenodd" d="M51.3497 49.7901H49.8488V48.4883H51.3497C51.7632 48.4883 52.1461 48.6874 52.1461 49.1315C52.1461 49.591 51.7632 49.7901 51.3497 49.7901ZM54.6578 54.5991L53.1875 51.6585C53.8307 51.3369 54.6424 50.5712 54.6424 49.1468C54.6424 47.5847 53.6163 46.2982 51.7172 46.2982H47.383V54.6144H49.8334V51.9955H50.7217L51.8397 54.6144H54.6578V54.5991ZM43.8911 52.5162H41.9154V51.4594H43.8911C44.2434 51.4594 44.4578 51.6892 44.4578 51.9955C44.4578 52.3018 44.2434 52.5162 43.8911 52.5162ZM43.8145 49.3612H41.9154V48.3811H43.8145C44.0749 48.3811 44.3046 48.5648 44.3046 48.8558C44.3046 49.1621 44.0749 49.3612 43.8145 49.3612ZM44.565 54.5991C46.1884 54.5991 46.9695 53.5117 46.9695 52.3477C46.9695 51.2757 46.2956 50.4486 45.4226 50.3108C46.219 50.1423 46.8163 49.4378 46.8163 48.4117C46.8163 47.4468 46.0812 46.2982 44.4118 46.2982H39.4803V54.6144H44.565V54.5991ZM37.5965 54.645C38.301 54.645 38.8983 54.0324 38.8983 53.3126C38.8983 52.5928 38.301 51.9802 37.5965 51.9802C36.892 51.9802 36.2947 52.5928 36.2947 53.3126C36.2947 54.0324 36.892 54.645 37.5965 54.645ZM35.728 54.5991V46.2829H32.328L30.9037 50.2648L29.4794 46.2829H26.0794V54.5991H28.5452V49.6063L30.3524 54.5991H31.4551L33.2623 49.6063V54.5991H35.728ZM21.2551 52.5315C20.0758 52.5315 19.31 51.6126 19.31 50.4486C19.31 49.2847 20.0758 48.3657 21.2551 48.3657C22.4343 48.3657 23.2001 49.2847 23.2001 50.4486C23.2001 51.6126 22.4343 52.5315 21.2551 52.5315ZM21.2551 54.7522C23.7668 54.7522 25.6965 53.0063 25.6965 50.4486C25.6965 47.891 23.7668 46.145 21.2551 46.145C18.7434 46.145 16.8136 47.891 16.8136 50.4486C16.8136 53.0063 18.7434 54.7522 21.2551 54.7522ZM12.6479 54.7522C10.1055 54.7522 8.1758 53.0063 8.1758 50.4486C8.1758 47.8757 10.1055 46.145 12.6479 46.145C14.7767 46.145 15.8488 47.4162 16.3389 48.5648L14.2253 49.5757C14.0262 48.9324 13.383 48.3657 12.6479 48.3657C11.4686 48.3657 10.6722 49.2847 10.6722 50.4486C10.6722 51.6126 11.4686 52.5315 12.6479 52.5315C13.383 52.5315 14.0109 51.9648 14.2253 51.3216L16.3389 52.3171C15.8641 53.4351 14.7767 54.7522 12.6479 54.7522ZM6.62895 54.645C7.33345 54.645 7.93075 54.0324 7.93075 53.3126C7.93075 52.5928 7.33345 51.9802 6.62895 51.9802C5.92445 51.9802 5.32715 52.5928 5.32715 53.3126C5.32715 54.0324 5.92445 54.645 6.62895 54.645Z" fill="#EE7637"/>
</svg>
